HIERARCHY
ROOT Hips
{
	OFFSET 0.00000 0.00000 0.00000
	CHANNELS 6 Xposition Yposition Zposition Zrotation Yrotation Xrotation 
	JOINT LHipJoint
	{
		OFFSET 0 0 0
		CHANNELS 3 Zrotation Yrotation Xrotation
		JOINT LeftUpLeg
		{
			OFFSET 1.48831 -1.59570 0.95625
			CHANNELS 3 Zrotation Yrotation Xrotation
			JOINT LeftLeg
			{
				OFFSET 2.20856 -6.06797 0.00000
				CHANNELS 3 Zrotation Yrotation Xrotation
				JOINT LeftFoot
				{
					OFFSET 2.62924 -7.22379 0.00000
					CHANNELS 3 Zrotation Yrotation Xrotation
					JOINT LeftToeBase
					{
						OFFSET 0.16802 -0.46163 2.41673
						CHANNELS 3 Zrotation Yrotation Xrotation
						End Site
						{
							OFFSET 0.00000 -0.00000 1.23760
						}
					}
				}
			}
		}
	}
	JOINT RHipJoint
	{
		OFFSET 0 0 0
		CHANNELS 3 Zrotation Yrotation Xrotation
		JOINT RightUpLeg
		{
			OFFSET -1.56796 -1.59570 0.95625
			CHANNELS 3 Zrotation Yrotation Xrotation
			JOINT RightLeg
			{
				OFFSET -2.29239 -6.29829 0.00000
				CHANNELS 3 Zrotation Yrotation Xrotation
				JOINT RightFoot
				{
					OFFSET -2.66963 -7.33475 0.00000
					CHANNELS 3 Zrotation Yrotation Xrotation
					JOINT RightToeBase
					{
						OFFSET -0.18185 -0.49964 2.34359
						CHANNELS 3 Zrotation Yrotation Xrotation
						End Site
						{
							OFFSET -0.00000 -0.00000 1.20477
						}
					}
				}
			}
		}
	}
	JOINT LowerBack
	{
		OFFSET 0 0 0
		CHANNELS 3 Zrotation Yrotation Xrotation
		JOINT Spine
		{
			OFFSET 0.03505 2.15832 -0.34324
			CHANNELS 3 Zrotation Yrotation Xrotation
			JOINT Spine1
			{
				OFFSET -0.01089 2.17963 0.04689
				CHANNELS 3 Zrotation Yrotation Xrotation
				JOINT Neck
				{
					OFFSET 0 0 0
					CHANNELS 3 Zrotation Yrotation Xrotation
					JOINT Neck1
					{
						OFFSET 0.04686 1.69404 0.22159
						CHANNELS 3 Zrotation Yrotation Xrotation
						JOINT Head
						{
							OFFSET 0.00265 1.69305 -0.01513
							CHANNELS 3 Zrotation Yrotation Xrotation
							End Site
							{
								OFFSET -0.00415 1.80215 -0.03034
							}
						}
					}
				}
				JOINT LeftShoulder
				{
					OFFSET 0 0 0
					CHANNELS 3 Zrotation Yrotation Xrotation
					JOINT LeftArm
					{
						OFFSET 3.67184 1.11724 -0.19002
						CHANNELS 3 Zrotation Yrotation Xrotation
						JOINT LeftForeArm
						{
							OFFSET 5.17714 -0.00000 -0.00000
							CHANNELS 3 Zrotation Yrotation Xrotation
							JOINT LeftHand
							{
								OFFSET 3.43679 -0.00000 -0.00000
								CHANNELS 3 Zrotation Yrotation Xrotation
								JOINT LeftFingerBase
								{
									OFFSET 0 0 0
									CHANNELS 3 Zrotation Yrotation Xrotation
									JOINT LeftHandIndex1
									{
										OFFSET 0.57312 -0.00000 -0.00000
										CHANNELS 3 Zrotation Yrotation Xrotation
										End Site
										{
											OFFSET 0.46206 -0.00000 -0.00000
										}
									}
								}
								JOINT LThumb
								{
									OFFSET 0 0 0
									CHANNELS 3 Zrotation Yrotation Xrotation
									End Site
									{
										OFFSET 0.46912 -0.00000 0.46912
									}
								}
							}
						}
					}
				}
				JOINT RightShoulder
				{
					OFFSET 0 0 0
					CHANNELS 3 Zrotation Yrotation Xrotation
					JOINT RightArm
					{
						OFFSET -3.59596 0.95831 -0.26050
						CHANNELS 3 Zrotation Yrotation Xrotation
						JOINT RightForeArm
						{
							OFFSET -5.23908 -0.00000 -0.00000
							CHANNELS 3 Zrotation Yrotation Xrotation
							JOINT RightHand
							{
								OFFSET -3.46485 -0.00000 -0.00000
								CHANNELS 3 Zrotation Yrotation Xrotation
								JOINT RightFingerBase
								{
									OFFSET 0 0 0
									CHANNELS 3 Zrotation Yrotation Xrotation
									JOINT RightHandIndex1
									{
										OFFSET -0.60875 -0.00000 -0.00000
										CHANNELS 3 Zrotation Yrotation Xrotation
										End Site
										{
											OFFSET -0.49079 -0.00000 -0.00000
										}
									}
								}
								JOINT RThumb
								{
									OFFSET 0 0 0
									CHANNELS 3 Zrotation Yrotation Xrotation
									End Site
									{
										OFFSET -0.49829 -0.00000 0.49829
									}
								}
							}
						}
					}
				}
			}
		}
	}
}
MOTION
Frames: 6
Frame Time: .0083333
1.1202 16.3275 0.0200 -174.3480 -64.2281 170.8160 0.0000 0.0000 0.0000 -18.8069 11.1479 -2.4943 1.6809 8.1671 23.2228 1.4540 15.6083 -33.0097 0.0966 2.0046 5.5184 0.0000 0.0000 0.0000 24.6671 6.4592 -7.6180 -4.1477 -12.3543 36.9973 -2.1128 -3.5267 -28.9004 -0.0359 -1.2226 3.3614 2.7504 2.9067 -1.9988 1.1423 3.8057 -2.5982 -0.3349 1.8421 -1.4457 1.6773 6.8835 10.4289 14.5907 12.2403 -20.5346 3.3616 3.8379 -9.0702 -0.0000 -0.0000 0.0000 -78.9263 29.6586 50.5465 39.4571 -47.7450 -18.0364 -0.0000 0.0000 -17.1253 43.1080 0.8256 0.7728 -7.1250 0.0000 -0.0000 13.1007 30.9485 -4.6055 -0.0000 -0.0000 0.0000 88.5021 28.4387 76.0658 -121.9153 55.7776 -87.2476 0.0000 0.0000 10.2819 -54.2690 5.1368 -7.0945 7.1250 -0.0000 -0.0000 -19.7151 -21.3763 -11.8810
1.1245 16.3279 0.0063 -174.3980 -63.8285 170.9050 0.0000 0.0000 0.0000 -18.7885 11.1221 -2.4625 1.6786 8.1618 23.2067 1.4745 15.8172 -33.3191 0.1054 2.0933 5.7636 0.0000 0.0000 0.0000 24.7497 6.6459 -7.6264 -4.1494 -12.3566 37.0054 -2.0981 -3.4053 -28.7514 -0.0362 -1.2279 3.3762 2.7194 2.8768 -2.0271 1.1466 3.7647 -2.6044 -0.3125 1.8220 -1.4393 1.6774 6.8472 10.4643 14.5460 12.1785 -20.5150 3.3523 3.8132 -9.0616 -0.0000 -0.0000 0.0000 -78.9279 29.6657 50.5492 39.4571 -47.7450 -18.0364 -0.0000 0.0000 -17.1079 43.0836 0.8510 0.7958 -7.1250 0.0000 -0.0000 13.0862 30.9823 -4.5892 -0.0000 -0.0000 0.0000 88.5010 28.4393 76.0824 -121.9374 55.7712 -87.2659 0.0000 0.0000 10.2866 -54.2670 5.1635 -7.1303 7.1250 -0.0000 -0.0000 -19.7056 -21.3343 -11.8948
1.1287 16.3283 -0.0071 -174.4380 -63.4306 170.9830 0.0000 0.0000 0.0000 -18.7655 11.1033 -2.4332 1.6774 8.1591 23.1985 1.4998 16.0019 -33.6339 0.1153 2.1893 6.0290 0.0000 0.0000 0.0000 24.8320 6.8189 -7.6330 -4.1496 -12.3569 37.0064 -2.0823 -3.2802 -28.5936 -0.0365 -1.2337 3.3920 2.6948 2.8476 -2.0525 1.1515 3.7246 -2.6122 -0.2931 1.8021 -1.4360 1.6716 6.8112 10.4989 14.5065 12.1174 -20.4976 3.3457 3.7885 -9.0545 0.0000 -0.0000 0.0000 -78.9272 29.6721 50.5580 39.4560 -47.7443 -18.0356 -0.0000 0.0000 -17.0920 43.0639 0.8815 0.8237 -7.1250 0.0000 -0.0000 13.0760 31.0230 -4.5724 0.0000 -0.0000 0.0000 88.4991 28.4391 76.0931 -121.9548 55.7661 -87.2803 0.0000 0.0000 10.2994 -54.2709 5.1724 -7.1434 7.1250 -0.0000 -0.0000 -19.7054 -21.3196 -11.9016
1.1328 16.3286 -0.0201 -174.4490 -63.0317 171.0360 0.0000 0.0000 0.0000 -18.7308 11.0835 -2.4083 1.6775 8.1592 23.1987 1.5295 16.1716 -33.9586 0.1264 2.2917 6.3124 0.0000 0.0000 0.0000 24.9250 6.9852 -7.6387 -4.1483 -12.3552 37.0003 -2.0662 -3.1498 -28.4311 -0.0372 -1.2455 3.4247 2.6866 2.8208 -2.0745 1.1586 3.6877 -2.6223 -0.2809 1.7835 -1.4359 1.6675 6.7737 10.5318 14.4665 12.0546 -20.4844 3.3391 3.7627 -9.0482 -0.0000 0.0000 0.0000 -78.9199 29.6773 50.5789 39.4545 -47.7433 -18.0344 -0.0000 0.0000 -17.0762 43.0539 0.9004 0.8411 -7.1250 0.0000 -0.0000 13.0715 31.0482 -4.5626 -0.0000 0.0000 0.0000 88.4957 28.4352 76.1081 -121.9769 55.7597 -87.2986 0.0000 0.0000 10.3436 -54.2940 5.0677 -7.0066 7.1250 -0.0000 -0.0000 -19.7529 -21.4813 -11.8562
1.1366 16.3287 -0.0326 -174.4550 -62.6383 171.0810 0.0000 0.0000 0.0000 -18.6957 11.0668 -2.3835 1.6784 8.1613 23.2050 1.5611 16.3325 -34.2839 0.1377 2.3914 6.5886 0.0000 0.0000 0.0000 25.0136 7.1338 -7.6429 -4.1459 -12.3520 36.9889 -2.0495 -3.0132 -28.2620 -0.0378 -1.2546 3.4496 2.6855 2.7936 -2.0916 1.1649 3.6504 -2.6332 -0.2738 1.7644 -1.4389 1.6614 6.7358 10.5591 14.4311 11.9910 -20.4685 3.3346 3.7367 -9.0404 -0.0000 0.0000 0.0000 -78.9055 29.6831 50.6141 39.4527 -47.7423 -18.0331 -0.0000 0.0000 -17.0646 43.0635 0.9046 0.8454 -7.1250 0.0000 -0.0000 13.0798 31.0538 -4.5638 -0.0000 0.0000 0.0000 88.4909 28.4265 76.1337 -122.0085 55.7505 -87.3247 0.0000 0.0000 10.4140 -54.3299 4.8352 -6.6977 7.1250 -0.0000 -0.0000 -19.8486 -21.8443 -11.7451
1.1402 16.3287 -0.0446 -174.4580 -62.2537 171.1210 0.0000 0.0000 0.0000 -18.6620 11.0499 -2.3591 1.6798 8.1646 23.2153 1.5919 16.4961 -34.6045 0.1483 2.4818 6.8392 0.0000 0.0000 0.0000 25.0964 7.2633 -7.6473 -4.1427 -12.3479 36.9739 -2.0330 -2.8623 -28.0881 -0.0385 -1.2667 3.4829 2.6902 2.7648 -2.1005 1.1695 3.6112 -2.6493 -0.2722 1.7442 -1.4514 1.6610 6.6967 10.6029 14.3914 11.9287 -20.4626 3.3272 3.7098 -9.0387 0.0000 0.0000 0.0000 -78.8834 29.6974 50.6623 39.4542 -47.7432 -18.0343 -0.0000 0.0000 -17.0637 43.0954 0.8902 0.8328 -7.1250 0.0000 -0.0000 13.1023 31.0346 -4.5782 0.0000 0.0000 0.0000 88.4902 28.4066 76.1713 -122.0385 55.7418 -87.3495 0.0000 0.0000 10.5071 -54.3712 4.5179 -6.2721 7.1250 -0.0000 -0.0000 -19.9753 -22.3424 -11.5858
